<?xml version="1.0" encoding="UTF-8" standalone="no"?>
<!-- Created with Inkscape (http://www.inkscape.org/) -->

<svg
   version="1.1"
   id="svg2"
   xml:space="preserve"
   width="158.77333"
   height="45.360001"
   viewBox="0 0 158.77333 45.360001"
   sodipodi:docname="Works_with_Apple_Home_US-EN_blk_050622.eps"
   xmlns:inkscape="http://www.inkscape.org/namespaces/inkscape"
   xmlns:sodipodi="http://sodipodi.sourceforge.net/DTD/sodipodi-0.dtd"
   xmlns="http://www.w3.org/2000/svg"
   xmlns:svg="http://www.w3.org/2000/svg"><defs
     id="defs6" /><sodipodi:namedview
     id="namedview4"
     pagecolor="#ffffff"
     bordercolor="#666666"
     borderopacity="1.0"
     inkscape:pageshadow="2"
     inkscape:pageopacity="0.0"
     inkscape:pagecheckerboard="0" /><g
     id="g8"
     inkscape:groupmode="layer"
     inkscape:label="ink_ext_XXXXXX"
     transform="matrix(1.3333333,0,0,-1.3333333,0,45.36)"><g
       id="g10"
       transform="scale(0.1)"><path
         d="M 1106.77,340.16 H 81.082 c -3.1172,0 -6.1992,0 -9.3086,-0.015 -2.6054,-0.016 -5.1875,-0.067 -7.8164,-0.11 -5.6562,-0.14 -11.3867,-0.488 -17.039,-1.504 -5.6953,-0.996 -10.9844,-2.699 -16.1641,-5.332 -5.0937,-2.605 -9.7422,-5.996 -13.7656,-10.023 C 12.918,319.148 9.54688,314.48 6.96875,309.391 4.32422,304.219 2.64453,298.902 1.65234,293.207 0.625,287.574 0.273438,281.879 0.128906,276.18 0.0507813,273.574 0.0429688,270.957 0,268.352 0,265.27 0,262.18 0,259.066 V 81.0898 C 0,77.9492 0,74.875 0,71.7852 0.0429688,69.1445 0.0507813,66.5898 0.128906,63.9453 0.273438,58.25 0.625,52.5547 1.65234,46.9219 2.64453,41.2266 4.32422,35.8828 6.96875,30.7266 9.54688,25.6602 12.918,20.9922 16.9883,17 21.0117,12.9375 25.6602,9.55859 30.7539,6.97656 35.9336,4.31641 41.2227,2.64063 46.918,1.60938 52.5703,0.597656 58.3008,0.265625 63.957,0.109375 66.5859,0.0507813 69.168,0.015625 71.7734,0.015625 74.8828,0 77.9648,0 81.082,0 H 1106.77 c 3.05,0 9.16,0 12.21,0.015625 2.6,0 5.25,0.0351563 7.84,0.09375 5.7,0.15625 11.42,0.488281 17.01,1.500005 5.7,1.03125 11,2.70703 16.23,5.36718 5.08,2.58203 9.73,5.96094 13.75,10.02344 4.05,3.9922 7.43,8.6602 10.05,13.7266 2.61,5.1562 4.3,10.5 5.27,16.1953 1.04,5.6328 1.37,11.3281 1.57,17.0234 0.04,2.6445 0.04,5.1992 0.04,7.8399 0.06,3.0898 0.06,6.164 0.06,9.3046 V 259.066 c 0,3.114 0,6.204 -0.06,9.286 0,2.605 0,5.222 -0.04,7.828 -0.2,5.699 -0.53,11.394 -1.57,17.027 -0.97,5.695 -2.66,11.012 -5.27,16.184 -2.62,5.089 -6,9.757 -10.05,13.785 -4.02,4.027 -8.67,7.418 -13.75,10.023 -5.23,2.633 -10.53,4.336 -16.23,5.332 -5.59,1.016 -11.31,1.364 -17.01,1.504 -2.59,0.043 -5.24,0.094 -7.84,0.11 -3.05,0.015 -9.16,0.015 -12.21,0.015 v 0"
         style="fill:#231f20;fill-opacity:1;fill-rule:nonzero;stroke:none"
         id="path12" /><path
         d="m 1106.77,333.16 c 3.04,0 9.13,0 12.17,-0.015 2.08,-0.016 4.21,-0.051 6.31,-0.086 l 1.4,-0.02 c 4.44,-0.113 10.27,-0.371 15.98,-1.402 5.12,-0.895 9.79,-2.43 14.23,-4.664 4.45,-2.282 8.49,-5.223 12.02,-8.762 3.48,-3.461 6.43,-7.508 8.73,-11.969 2.24,-4.449 3.75,-9.094 4.63,-14.316 0.98,-5.27 1.29,-10.797 1.46,-15.832 0.04,-2.578 0.04,-5.164 0.04,-7.895 0.06,-3.031 0.06,-6.07 0.06,-9.133 V 81.0898 c 0,-3.0898 0,-6.1132 -0.06,-9.3046 0,-2.6094 0,-5.1407 -0.03,-7.5938 -0.18,-5.1914 -0.49,-10.7187 -1.49,-16.1016 -0.86,-5.1406 -2.37,-9.7851 -4.57,-14.1445 -2.35,-4.5273 -5.29,-8.5508 -8.81,-12.0195 -3.49,-3.5195 -7.51,-6.4492 -11.95,-8.707 -4.45,-2.2618 -8.99,-3.75786 -14.3,-4.7188 -5.48,-0.99219 -11.14,-1.26172 -15.92,-1.39453 -2.54,-0.05469 -5.15,-0.08984 -7.72,-0.08984 C 1115.9,7 1109.81,7 1106.77,7 H 81.082 c -3.1054,0 -6.1718,0 -9.3086,0.01563 -2.5546,0 -5.0859,0.03515 -7.6211,0.08984 C 59.3438,7.23828 53.6836,7.51172 48.1641,8.5 c -5.2422,0.94531 -9.8907,2.4844 -14.2461,4.7188 -4.4453,2.2539 -8.4688,5.1835 -12.0274,8.7773 -3.4804,3.4141 -6.4023,7.418 -8.6953,11.9258 C 10.9805,38.2422 9.46094,42.8867 8.53906,48.1758 7.50391,53.8672 7.23828,59.6875 7.125,64.1563 7.07422,65.9219 7.05469,67.6445 7.03125,69.3867 L 7,71.7852 v 9.3046 177.9762 9.172 l 0.03125,2.532 c 0.02344,1.734 0.04297,3.468 0.09375,5.234 0.11328,4.434 0.37891,10.258 1.42188,16 0.91015,5.207 2.42972,9.851 4.66402,14.223 2.2696,4.476 5.1954,8.507 8.7305,12.003 3.5195,3.524 7.5547,6.465 11.9805,8.731 4.4297,2.25 9.0742,3.777 14.2304,4.68 5.7266,1.027 11.5469,1.285 15.9141,1.394 l 1.707,0.028 c 2.0235,0.035 4.0274,0.07 6.0352,0.082 l 9.2734,0.015 H 1106.77"
         style="fill:#ffffff;fill-opacity:1;fill-rule:nonzero;stroke:none"
         id="path14" /><path
         d="m 355.359,116.637 h 31.938 l -15.75,46.355 h -0.438 z m 36.11,-13.184 H 351.188 L 341.52,74.8867 h -17.067 l 38.16,105.6833 h 17.723 l 38.16,-105.6833 h -17.359 l -9.668,28.5663"
         style="fill:#231f20;fill-opacity:1;fill-rule:nonzero;stroke:none"
         id="path16" /><path
         d="m 484.563,113.414 c 0,15.594 -8.059,25.848 -20.364,25.848 -12.086,0 -20.215,-10.469 -20.215,-25.848 0,-15.5273 8.129,-25.9296 20.215,-25.9296 12.305,0 20.364,10.1758 20.364,25.9296 z m 16.257,0 c 0,-23.957 -12.816,-39.3281 -32.152,-39.3281 -10.988,0 -19.703,4.9024 -24.242,13.4766 h -0.367 V 49.3984 H 428.238 V 151.938 h 15.309 v -12.813 h 0.293 c 4.39,8.273 13.765,13.613 24.535,13.613 19.555,0 32.445,-15.449 32.445,-39.324"
         style="fill:#231f20;fill-opacity:1;fill-rule:nonzero;stroke:none"
         id="path18" /><path
         d="m 569.301,113.414 c 0,15.594 -8.055,25.848 -20.36,25.848 -12.086,0 -20.214,-10.469 -20.214,-25.848 0,-15.5273 8.128,-25.9296 20.214,-25.9296 12.305,0 20.36,10.1758 20.36,25.9296 z m 16.262,0 c 0,-23.957 -12.821,-39.3281 -32.157,-39.3281 -10.984,0 -19.699,4.9024 -24.242,13.4766 h -0.363 V 49.3984 H 512.977 V 151.938 h 15.308 v -12.813 h 0.293 c 4.395,8.273 13.77,13.613 24.535,13.613 19.559,0 32.45,-15.449 32.45,-39.324"
         style="fill:#231f20;fill-opacity:1;fill-rule:nonzero;stroke:none"
         id="path20" /><path
         d="m 598.305,180.57 h 15.82 V 74.8867 h -15.82 V 180.57"
         style="fill:#231f20;fill-opacity:1;fill-rule:nonzero;stroke:none"
         id="path22" /><path
         d="m 642.984,120.512 h 38.524 c -0.363,11.797 -7.91,19.562 -18.895,19.562 -10.914,0 -18.824,-7.91 -19.629,-19.562 z M 696.449,97.5234 C 694.324,83.5313 680.703,73.9297 663.27,73.9297 c -22.411,0 -36.329,15.0195 -36.329,39.1213 0,24.16 13.993,39.844 35.672,39.844 21.313,0 34.715,-14.649 34.715,-38.016 v -5.422 H 642.91 V 108.5 c 0,-13.1836 8.278,-21.8164 20.727,-21.8164 8.789,0 15.676,4.1719 17.801,10.8398 h 15.011"
         style="fill:#231f20;fill-opacity:1;fill-rule:nonzero;stroke:none"
         id="path24" /><path
         d="M 812.539,74.8867 V 121.684 H 758.27 V 74.8867 H 741.863 V 180.57 h 16.407 v -44.668 h 54.269 v 44.668 h 16.406 V 74.8867 h -16.406"
         style="fill:#231f20;fill-opacity:1;fill-rule:nonzero;stroke:none"
         id="path26" /><path
         d="m 898.805,113.414 c 0,16.629 -7.617,26.434 -20.43,26.434 -12.82,0 -20.437,-9.883 -20.437,-26.434 0,-16.6992 7.617,-26.4374 20.437,-26.4374 12.813,0 20.43,9.7382 20.43,26.4374 z m -56.981,0 c 0,24.246 14.285,39.481 36.551,39.481 22.336,0 36.543,-15.235 36.543,-39.481 0,-24.3163 -14.129,-39.4843 -36.543,-39.4843 -22.41,0 -36.551,15.168 -36.551,39.4843"
         style="fill:#231f20;fill-opacity:1;fill-rule:nonzero;stroke:none"
         id="path28" /><path
         d="m 927.73,151.938 h 15.086 v -13.184 h 0.364 c 3.445,8.711 11.797,14.062 21.902,14.062 10.695,0 18.457,-5.488 21.535,-15.086 h 0.36 c 3.957,9.375 13.033,15.086 24.023,15.086 15.24,0 25.2,-10.105 25.2,-25.488 V 74.8867 h -15.89 v 48.7113 c 0,9.882 -5.35,15.597 -14.73,15.597 -9.373,0 -15.889,-6.886 -15.889,-16.632 V 74.8867 h -15.527 v 49.8043 c 0,8.868 -5.644,14.504 -14.578,14.504 -9.375,0 -16.035,-7.257 -16.035,-17.218 V 74.8867 H 927.73 v 77.0513"
         style="fill:#231f20;fill-opacity:1;fill-rule:nonzero;stroke:none"
         id="path30" /><path
         d="m 1065.04,120.512 h 38.52 c -0.36,11.797 -7.91,19.562 -18.89,19.562 -10.91,0 -18.82,-7.91 -19.63,-19.562 z m 53.46,-22.9886 c -2.11,-13.9921 -15.74,-23.5937 -33.17,-23.5937 -22.41,0 -36.33,15.0195 -36.33,39.1213 0,24.16 13.99,39.844 35.67,39.844 21.31,0 34.71,-14.649 34.71,-38.016 v -5.422 h -54.41 V 108.5 c 0,-13.1836 8.27,-21.8164 20.72,-21.8164 8.79,0 15.68,4.1719 17.8,10.8398 h 15.01"
         style="fill:#231f20;fill-opacity:1;fill-rule:nonzero;stroke:none"
         id="path32" /><path
         d="m 343.328,214.719 h -7.437 l -13.657,50.64 h 8.176 l 9.309,-38.781 h 0.484 l 10.567,38.781 h 7.296 l 10.633,-38.781 h 0.5 l 9.258,38.781 h 8.184 l -13.692,-50.64 h -7.402 l -10.879,37.164 h -0.496 l -10.844,-37.164"
         style="fill:#231f20;fill-opacity:1;fill-rule:nonzero;stroke:none"
         id="path34" /><path
         d="m 419.07,233.844 c 0,8.281 -3.718,13.125 -10.242,13.125 -6.57,0 -10.254,-4.844 -10.254,-13.125 0,-8.352 3.684,-13.16 10.254,-13.16 6.524,0 10.242,4.843 10.242,13.16 z m -28.289,0 c 0,12.316 6.887,19.828 18.047,19.828 11.121,0 17.996,-7.512 17.996,-19.828 0,-12.391 -6.844,-19.864 -17.996,-19.864 -11.199,0 -18.047,7.473 -18.047,19.864"
         style="fill:#231f20;fill-opacity:1;fill-rule:nonzero;stroke:none"
         id="path36" /><path
         d="m 437.031,252.934 h 7.266 v -5.86 h 0.566 c 1.082,3.754 5.332,6.496 10.313,6.496 1.125,0 2.566,-0.109 3.371,-0.32 v -7.441 c -0.625,0.211 -2.871,0.461 -4.211,0.461 -5.723,0 -9.758,-3.618 -9.758,-8.985 v -22.566 h -7.547 v 38.215"
         style="fill:#231f20;fill-opacity:1;fill-rule:nonzero;stroke:none"
         id="path38" /><path
         d="m 490.605,252.934 h 8.907 l -15.723,-16.387 16.777,-21.828 h -9.265 l -13.125,16.844 -3.332,-3.161 v -13.683 h -7.547 v 53.133 h 7.547 v -30.848 h 0.594 l 15.167,15.93"
         style="fill:#231f20;fill-opacity:1;fill-rule:nonzero;stroke:none"
         id="path40" /><path
         d="m 521.121,253.672 c 8.598,0 14.211,-4 14.953,-10.738 h -7.234 c -0.703,2.808 -3.442,4.593 -7.719,4.593 -4.219,0 -7.41,-1.996 -7.41,-4.98 0,-2.285 1.934,-3.719 6.074,-4.664 l 6.36,-1.477 c 7.261,-1.683 10.664,-4.808 10.664,-10.426 0,-7.191 -6.704,-12 -15.832,-12 -9.082,0 -15.02,4.106 -15.684,10.879 h 7.551 c 0.945,-2.949 3.75,-4.769 8.308,-4.769 4.707,0 8.036,2.101 8.036,5.152 0,2.281 -1.786,3.758 -5.614,4.668 l -6.672,1.543 c -7.254,1.727 -10.625,4.988 -10.625,10.672 0,6.777 6.211,11.547 14.844,11.547"
         style="fill:#231f20;fill-opacity:1;fill-rule:nonzero;stroke:none"
         id="path42" /><path
         d="m 607.078,214.719 h -7.82 l -7.903,28.14 h -0.593 l -7.864,-28.14 h -7.753 l -10.528,38.215 h 7.649 l 6.843,-29.164 h 0.571 l 7.859,29.164 h 7.227 l 7.863,-29.164 h 0.594 l 6.804,29.164 h 7.551 l -10.5,-38.215"
         style="fill:#231f20;fill-opacity:1;fill-rule:nonzero;stroke:none"
         id="path44" /><path
         d="m 626.688,252.934 h 7.511 v -38.215 h -7.511 z m -1.122,11.304 c 0,2.633 2.071,4.629 4.872,4.629 2.816,0 4.882,-1.996 4.882,-4.629 0,-2.597 -2.066,-4.601 -4.882,-4.601 -2.801,0 -4.872,2.004 -4.872,4.601"
         style="fill:#231f20;fill-opacity:1;fill-rule:nonzero;stroke:none"
         id="path46" /><path
         d="m 656.609,262.445 v -9.687 h 8.286 v -6.352 h -8.286 v -19.652 c 0,-4 1.653,-5.754 5.411,-5.754 1.156,0 1.82,0.07 2.875,0.172 v -6.281 c -1.223,-0.207 -2.629,-0.383 -4.102,-0.383 -8.391,0 -11.723,2.949 -11.723,10.316 v 21.582 h -6.074 v 6.352 h 6.074 v 9.687 h 7.539"
         style="fill:#231f20;fill-opacity:1;fill-rule:nonzero;stroke:none"
         id="path48" /><path
         d="m 675.254,267.852 h 7.48 v -21.059 h 0.594 c 1.86,4.281 5.902,6.844 11.652,6.844 8.145,0 13.165,-5.16 13.165,-14.246 v -24.672 h -7.547 v 22.808 c 0,6.106 -2.844,9.196 -8.176,9.196 -6.184,0 -9.617,-3.895 -9.617,-9.688 v -22.316 h -7.551 v 53.133"
         style="fill:#231f20;fill-opacity:1;fill-rule:nonzero;stroke:none"
         id="path50" /><path
         d="m 243.207,96.4258 c 0,-4.7461 -2.437,-8.0352 -7.391,-8.0352 -4.949,0 -66.921,0 -66.921,0 0,0 -62.032,0 -66.981,0 -4.9492,0 -7.3906,3.2891 -7.3906,8.0352 0,3.9222 0,94.6602 0,99.1832 0,5.758 2.5157,9.434 5.3946,11.704 2.875,2.273 62.777,48.742 64.453,50.066 1.68,1.32 3.113,1.894 4.524,1.894 1.367,0 2.847,-0.574 4.523,-1.894 1.676,-1.324 61.52,-47.793 64.398,-50.066 2.875,-2.27 5.391,-5.946 5.391,-11.704 0,-4.523 0,-95.261 0,-99.1832 z m 32.809,97.2112 c -0.93,0.734 -23.864,18.988 -23.864,18.988 v 33.52 c 0,2.472 -0.98,3.183 -2.738,3.183 h -15.031 c -2.031,0 -3.27,-0.398 -3.27,-3.183 v -17.047 l -0.008,0.004 c -26.851,21.203 -55.972,44.203 -57.082,45.074 -2.203,1.742 -3.562,2.195 -5.128,2.195 -1.551,0 -2.926,-0.453 -5.129,-2.195 -2.203,-1.738 -99.0629,-78.227 -101.9926,-80.539 -3.5742,-2.824 -2.5664,-6.887 1.4102,-6.887 2.8281,0 18.9141,0 18.9141,0 0,0 0,-96.957 0,-102.6133 0,-6.6289 2.6523,-9.2812 8.9609,-9.2812 4.3672,0 77.8364,0 77.8364,0 0,0 73.468,0 77.835,0 6.313,0 8.961,2.6523 8.961,9.2812 0,5.6563 0,102.6133 0,102.6133 0,0 16.086,0 18.914,0 3.981,0 4.989,4.063 1.411,6.887"
         style="fill:#231f20;fill-opacity:1;fill-rule:nonzero;stroke:none"
         id="path52" /><path
         d="m 208.281,128.262 c 0,-3.453 -1.918,-4.789 -4.543,-4.789 -2.625,0 -34.843,0 -34.843,0 0,0 -32.219,0 -34.844,0 -2.625,0 -4.543,1.336 -4.543,4.789 0,2.113 0,51.883 0,54.304 0,2.422 0,4.348 2.637,6.465 1.734,1.395 32.933,26.008 33.867,26.746 0.933,0.739 1.851,1.121 2.883,1.121 0.976,0 1.949,-0.382 2.882,-1.121 0.938,-0.738 32.133,-25.351 33.871,-26.746 2.633,-2.117 2.633,-4.043 2.633,-6.465 0,-2.421 0,-52.191 0,-54.304 z m 9.18,67.41 c -1.582,1.254 -43.992,34.738 -45.125,35.637 -1.137,0.894 -2.352,1.355 -3.441,1.355 -1.098,0 -2.305,-0.461 -3.438,-1.355 -1.137,-0.899 -43.547,-34.383 -45.125,-35.637 -2.801,-2.219 -3.723,-4.488 -3.723,-8.43 0,-3.664 0,-68.418 0,-71.219 0,-4.062 2.293,-5.953 5.672,-5.953 3.379,0 46.614,0 46.614,0 0,0 43.234,0 46.613,0 3.379,0 5.676,1.891 5.676,5.953 0,2.801 0,67.555 0,71.219 0,3.942 -0.926,6.211 -3.723,8.43"
         style="fill:#231f20;fill-opacity:1;fill-rule:nonzero;stroke:none"
         id="path54" /><path
         d="m 177.828,155.246 c 0,-1.016 -0.512,-1.246 -1.226,-1.246 -0.469,0 -7.692,0 -7.692,0 0,0 -7.222,0 -7.695,0 -0.715,0 -1.227,0.23 -1.227,1.246 0,0.66 0,13.723 0,14.399 0,0.671 0.282,1.367 0.871,1.847 0.317,0.254 7,5.488 7.239,5.68 0.242,0.187 0.597,0.293 0.812,0.293 0.211,0 0.57,-0.106 0.809,-0.293 0.238,-0.192 6.922,-5.426 7.238,-5.68 0.59,-0.48 0.871,-1.176 0.871,-1.847 0,-0.676 0,-13.739 0,-14.399 z m -6.98,37.289 c -0.578,0.453 -1.438,0.711 -1.953,0.711 -0.516,0 -1.372,-0.258 -1.95,-0.711 -0.578,-0.457 -17.039,-13.07 -17.797,-13.683 -1.421,-1.161 -2.097,-2.832 -2.097,-4.454 0,-1.625 0,-28.886 0,-30.476 0,-2.453 1.226,-3.004 2.949,-3.004 1.137,0 18.895,0 18.895,0 0,0 17.781,0 18.914,0 1.722,0 2.953,0.551 2.953,3.004 0,1.59 0,28.851 0,30.476 0,1.622 -0.676,3.293 -2.102,4.454 -0.758,0.613 -17.234,13.226 -17.812,13.683"
         style="fill:#231f20;fill-opacity:1;fill-rule:nonzero;stroke:none"
         id="path56" /></g></g></svg>
